<svg width="253" height="285" viewBox="0 0 253 285" fill="none" xmlns="http://www.w3.org/2000/svg">
<path opacity="0.8" d="M126.78 284.366C196.207 284.366 252.488 261.766 252.488 233.888C252.488 206.01 196.207 183.41 126.78 183.41C57.3529 183.41 1.07129 206.01 1.07129 233.888C1.07129 261.766 57.3529 284.366 126.78 284.366Z" stroke="#C3DBFD" stroke-width="0.3156" stroke-miterlimit="10"/>
<path opacity="0.5" d="M38.0107 0.638672V222.019C38.0107 222.019 44.511 258.868 124.693 258.163C206.545 257.443 218.569 222.019 218.569 222.019V0.638672H38.0107Z" fill="url(#paint0_linear_0_1)"/>
<path opacity="0.1" d="M227.963 232.367C227.963 210.263 183.338 192.344 128.29 192.344C73.2424 192.344 28.6172 210.263 28.6172 232.367V239.735C28.6172 261.839 73.2423 279.758 128.29 279.758C183.338 279.758 227.963 261.839 227.963 239.735L227.963 232.367Z" fill="black"/>
<path d="M225.957 226.521C217.344 207.936 176.755 193.865 127.976 193.865C79.1965 193.865 38.6076 207.936 29.9944 226.521H28.3027V233.889C28.3027 255.993 72.9278 273.912 127.976 273.912C183.024 273.912 227.649 255.993 227.649 233.889V226.521H225.957Z" fill="url(#paint1_linear_0_1)"/>
<path d="M127.976 266.545C183.024 266.545 227.649 248.626 227.649 226.521C227.649 204.417 183.024 186.498 127.976 186.498C72.9279 186.498 28.3027 204.417 28.3027 226.521C28.3027 248.626 72.9279 266.545 127.976 266.545Z" fill="url(#paint2_linear_0_1)"/>
<path opacity="0.1" d="M181.662 225.571C181.662 235.513 158.85 243.573 130.71 243.573C102.57 243.573 79.7578 235.513 79.7578 225.571C79.7578 215.629 102.57 207.568 130.71 207.568C158.85 207.568 181.662 215.628 181.662 225.571Z" fill="black"/>
<g opacity="0.3">
<path d="M127.975 260.101C102.48 260.101 78.6479 255.713 60.8694 247.745C46.375 241.249 37.3711 232.752 37.3711 225.571C37.3711 218.39 46.375 209.893 60.8694 203.397C78.6476 195.429 102.48 191.041 127.975 191.041C153.471 191.041 177.303 195.429 195.081 203.397C209.576 209.893 218.58 218.39 218.58 225.571C218.58 232.753 209.576 241.249 195.081 247.745C177.303 255.713 153.471 260.101 127.975 260.101ZM127.975 191.366C102.524 191.366 78.7395 195.744 61.0022 203.694C46.6265 210.136 37.6963 218.52 37.6963 225.571C37.6963 232.623 46.6265 241.006 61.0022 247.448C78.7398 255.398 102.525 259.776 127.975 259.776C153.426 259.776 177.211 255.398 194.949 247.448C209.324 241.006 218.254 232.623 218.254 225.571C218.254 218.52 209.324 210.136 194.949 203.694C177.211 195.744 153.426 191.366 127.975 191.366Z" fill="#4886F7"/>
</g>
<path d="M150.691 97.0629C150.691 112.581 140.822 125.488 127.831 128.134C126.217 128.47 124.566 128.638 122.878 128.638C107.512 128.638 95.0645 114.496 95.0645 97.0629C95.0645 79.6296 107.512 65.4883 122.878 65.4883C124.566 65.4883 126.217 65.6563 127.831 65.9921C140.822 68.6373 150.691 81.5443 150.691 97.0629Z" fill="url(#paint3_radial_0_1)"/>
<path d="M160.605 97.0629C160.605 114.496 148.148 128.638 132.783 128.638H122.877C124.565 128.638 126.216 128.47 127.83 128.134C140.822 125.488 150.69 112.581 150.69 97.0629C150.69 81.5443 140.822 68.6373 127.83 65.9921C126.216 65.6562 124.565 65.4883 122.877 65.4883H132.783C148.148 65.4883 160.605 79.6297 160.605 97.0629Z" fill="url(#paint4_linear_0_1)"/>
<path d="M169.305 197.179C169.305 198.681 169.261 200.172 169.186 201.641C158.706 208.653 143.537 213.061 126.662 213.061C104.816 213.061 85.8229 205.671 76.1641 194.813C76.6611 177.235 82.8085 161.558 92.2727 150.819C100.44 141.55 111.072 135.953 122.707 135.953C124.598 135.953 126.456 136.094 128.293 136.385C135.921 137.574 142.975 141.193 149.015 146.627C161.267 157.669 169.305 176.187 169.305 197.179Z" fill="url(#paint5_radial_0_1)"/>
<path d="M180.216 190.761C177.677 194.802 173.907 198.486 169.185 201.641C169.261 200.172 169.304 198.681 169.304 197.179C169.304 176.187 161.266 157.669 149.015 146.627C142.975 141.193 135.92 137.574 128.293 136.385C126.456 136.094 124.598 135.953 122.707 135.953H133.878C146.692 135.953 158.306 142.76 166.733 153.769C173.928 163.168 178.801 175.614 180.119 189.53C180.162 189.94 180.195 190.351 180.216 190.761Z" fill="url(#paint6_linear_0_1)"/>
<path d="M150.691 97.0629C150.691 112.581 140.822 125.488 127.831 128.134C126.217 128.47 124.566 128.638 122.878 128.638C107.512 128.638 95.0645 114.496 95.0645 97.0629C95.0645 79.6296 107.512 65.4883 122.878 65.4883C124.566 65.4883 126.217 65.6563 127.831 65.9921C140.822 68.6373 150.691 81.5443 150.691 97.0629Z" fill="url(#paint7_radial_0_1)"/>
<path d="M160.605 97.0629C160.605 114.496 148.148 128.638 132.783 128.638H122.877C124.565 128.638 126.216 128.47 127.83 128.134C140.822 125.488 150.69 112.581 150.69 97.0629C150.69 81.5443 140.822 68.6373 127.83 65.9921C126.216 65.6562 124.565 65.4883 122.877 65.4883H132.783C148.148 65.4883 160.605 79.6297 160.605 97.0629Z" fill="url(#paint8_linear_0_1)"/>
<path d="M169.305 197.179C169.305 198.681 169.261 200.172 169.186 201.641C158.706 208.653 143.537 213.061 126.662 213.061C104.816 213.061 85.8229 205.671 76.1641 194.813C76.6611 177.235 82.8085 161.558 92.2727 150.819C100.44 141.55 111.072 135.953 122.707 135.953C124.598 135.953 126.456 136.094 128.293 136.385C135.921 137.574 142.975 141.193 149.015 146.627C161.267 157.669 169.305 176.187 169.305 197.179Z" fill="url(#paint9_radial_0_1)"/>
<path d="M180.216 190.761C177.677 194.802 173.907 198.486 169.185 201.641C169.261 200.172 169.304 198.681 169.304 197.179C169.304 176.187 161.266 157.669 149.015 146.627C142.975 141.193 135.92 137.574 128.293 136.385C126.456 136.094 124.598 135.953 122.707 135.953H133.878C146.692 135.953 158.306 142.76 166.733 153.769C173.928 163.168 178.801 175.614 180.119 189.53C180.162 189.94 180.195 190.351 180.216 190.761Z" fill="url(#paint10_linear_0_1)"/>
<defs>
<linearGradient id="paint0_linear_0_1" x1="128.29" y1="216.325" x2="128.29" y2="-95.6861" gradientUnits="userSpaceOnUse">
<stop offset="0.1648" stop-color="#F7F5FC"/>
<stop offset="1" stop-color="#008CF7" stop-opacity="0"/>
</linearGradient>
<linearGradient id="paint1_linear_0_1" x1="60.7949" y1="236.031" x2="212.672" y2="231.187" gradientUnits="userSpaceOnUse">
<stop stop-color="#5696F3"/>
<stop offset="0.3694" stop-color="#6DA2F5"/>
<stop offset="1" stop-color="#93BBF8"/>
</linearGradient>
<linearGradient id="paint2_linear_0_1" x1="28.3027" y1="226.521" x2="227.649" y2="226.521" gradientUnits="userSpaceOnUse">
<stop stop-color="#5A9CFE"/>
<stop offset="0.5" stop-color="#70A8FE"/>
<stop offset="1" stop-color="#97C0FF"/>
<stop offset="1.0001" stop-color="#97C0FF"/>
</linearGradient>
<radialGradient id="paint3_radial_0_1" cx="0" cy="0" r="1" gradientUnits="userSpaceOnUse" gradientTransform="translate(121.851 61.1327) scale(97.8386 97.8386)">
<stop stop-color="#E5E7FC"/>
<stop offset="1" stop-color="#FFFFFB"/>
</radialGradient>
<linearGradient id="paint4_linear_0_1" x1="118.826" y1="51.5802" x2="194.739" y2="243.319" gradientUnits="userSpaceOnUse">
<stop stop-color="#DAEAF7"/>
<stop offset="1" stop-color="#A5C6FC"/>
</linearGradient>
<radialGradient id="paint5_radial_0_1" cx="0" cy="0" r="1" gradientUnits="userSpaceOnUse" gradientTransform="translate(129.677 121.719) scale(100.369 100.369)">
<stop stop-color="#E5E7FC"/>
<stop offset="1" stop-color="#FFFFFB"/>
</radialGradient>
<linearGradient id="paint6_linear_0_1" x1="144.218" y1="143.73" x2="201.74" y2="237.903" gradientUnits="userSpaceOnUse">
<stop stop-color="#DAEAF7"/>
<stop offset="1" stop-color="#A5C6FC"/>
</linearGradient>
<radialGradient id="paint7_radial_0_1" cx="0" cy="0" r="1" gradientUnits="userSpaceOnUse" gradientTransform="translate(121.851 61.1327) scale(97.8386 97.8386)">
<stop stop-color="#E5E7FC"/>
<stop offset="1" stop-color="#FFFFFB"/>
</radialGradient>
<linearGradient id="paint8_linear_0_1" x1="118.826" y1="51.5802" x2="194.739" y2="243.319" gradientUnits="userSpaceOnUse">
<stop stop-color="#DAEAF7"/>
<stop offset="1" stop-color="#A5C6FC"/>
</linearGradient>
<radialGradient id="paint9_radial_0_1" cx="0" cy="0" r="1" gradientUnits="userSpaceOnUse" gradientTransform="translate(129.677 121.719) scale(100.369 100.369)">
<stop stop-color="#E5E7FC"/>
<stop offset="1" stop-color="#FFFFFB"/>
</radialGradient>
<linearGradient id="paint10_linear_0_1" x1="144.218" y1="143.73" x2="201.74" y2="237.903" gradientUnits="userSpaceOnUse">
<stop stop-color="#DAEAF7"/>
<stop offset="1" stop-color="#A5C6FC"/>
</linearGradient>
</defs>
</svg>
