<svg width="107" height="179" viewBox="0 0 107 179" fill="none" xmlns="http://www.w3.org/2000/svg">
<path opacity="0.1" d="M106.303 160.571C106.303 170.513 83.4904 178.573 55.3505 178.573C27.2106 178.573 4.39844 170.513 4.39844 160.571C4.39844 150.629 27.2103 142.568 55.3505 142.568C83.4907 142.568 106.303 150.628 106.303 160.571Z" fill="black"/>
<path d="M75.3314 32.0629C75.3314 47.5815 65.4631 60.4885 52.4712 63.1337C50.8577 63.4696 49.2068 63.6376 47.5183 63.6376C32.1531 63.6376 19.7051 49.4962 19.7051 32.0629C19.7051 14.6296 32.153 0.488281 47.5183 0.488281C49.2068 0.488281 50.8578 0.656281 52.4712 0.992081C65.4631 3.63728 75.3314 16.5443 75.3314 32.0629Z" fill="url(#paint0_radial_0_1)"/>
<path d="M85.2459 32.0629C85.2459 49.4962 72.7886 63.6376 57.4234 63.6376H47.5176C49.2061 63.6376 50.8571 63.4696 52.4705 63.1337C65.4624 60.4885 75.3307 47.5815 75.3307 32.0629C75.3307 16.5443 65.4624 3.63728 52.4705 0.992081C50.857 0.656181 49.2061 0.488281 47.5176 0.488281H57.4234C72.7886 0.488281 85.2459 14.6297 85.2459 32.0629Z" fill="url(#paint1_linear_0_1)"/>
<path d="M93.9454 132.179C93.9454 133.681 93.9021 135.172 93.8265 136.641C83.3467 143.653 68.178 148.061 51.3023 148.061C29.4568 148.061 10.4635 140.671 0.804688 129.813C1.30169 112.235 7.44908 96.5584 16.9133 85.8193C25.0811 76.5495 35.7122 70.9531 47.348 70.9531C49.2387 70.9531 51.0969 71.0936 52.9336 71.3853C60.5612 72.5737 67.6161 76.1931 73.6555 81.6274C85.9072 92.669 93.9454 111.187 93.9454 132.179Z" fill="url(#paint2_radial_0_1)"/>
<path d="M104.857 125.761C102.318 129.802 98.5474 133.486 93.8261 136.641C93.9017 135.172 93.945 133.681 93.945 132.179C93.945 111.187 85.9069 92.669 73.6552 81.6274C67.6158 76.1931 60.5608 72.5737 52.9333 71.3853C51.0966 71.0936 49.2384 70.9531 47.3477 70.9531H58.5189C71.3323 70.9531 82.9466 77.7596 91.3737 88.7688C98.5691 98.1682 103.442 110.614 104.76 124.53C104.803 124.94 104.835 125.351 104.857 125.761Z" fill="url(#paint3_linear_0_1)"/>
<defs>
<radialGradient id="paint0_radial_0_1" cx="0" cy="0" r="1" gradientUnits="userSpaceOnUse" gradientTransform="translate(46.4921 -3.86732) scale(97.8386 97.8386)">
<stop stop-color="#E5E7FC"/>
<stop offset="1" stop-color="#FFFFFB"/>
</radialGradient>
<linearGradient id="paint1_linear_0_1" x1="43.4669" y1="-13.4198" x2="119.38" y2="178.319" gradientUnits="userSpaceOnUse">
<stop stop-color="#DAEAF7"/>
<stop offset="1" stop-color="#A5C6FC"/>
</linearGradient>
<radialGradient id="paint2_radial_0_1" cx="0" cy="0" r="1" gradientUnits="userSpaceOnUse" gradientTransform="translate(54.3177 56.7189) scale(100.369 100.369)">
<stop stop-color="#E5E7FC"/>
<stop offset="1" stop-color="#FFFFFB"/>
</radialGradient>
<linearGradient id="paint3_linear_0_1" x1="68.8585" y1="78.7295" x2="126.38" y2="172.903" gradientUnits="userSpaceOnUse">
<stop stop-color="#DAEAF7"/>
<stop offset="1" stop-color="#A5C6FC"/>
</linearGradient>
</defs>
</svg>
